<mxfile host="app.diagrams.net" agent="Mozilla/5.0 (Windows NT 10.0; Win64; x64) AppleWebKit/537.36 (KHTML, like Gecko) Chrome/131.0.0.0 Safari/537.36" version="24.8.4">
  <diagram name="Сторінка-1" id="ayz4KEjir6qEMUvqHNpO">
    <mxGraphModel dx="454" dy="1559" grid="1" gridSize="10" guides="1" tooltips="1" connect="1" arrows="1" fold="1" page="1" pageScale="1" pageWidth="827" pageHeight="1169" math="0" shadow="0">
      <root>
        <mxCell id="0" />
        <mxCell id="1" parent="0" />
        <mxCell id="5TrUls5Ifo_psQ1rPtZl-2" style="edgeStyle=orthogonalEdgeStyle;rounded=0;orthogonalLoop=1;jettySize=auto;html=1;" edge="1" parent="1" source="5TrUls5Ifo_psQ1rPtZl-1">
          <mxGeometry relative="1" as="geometry">
            <mxPoint x="60" y="-1100" as="targetPoint" />
          </mxGeometry>
        </mxCell>
        <mxCell id="5TrUls5Ifo_psQ1rPtZl-3" value="FurryVirus&lt;div&gt;V1&lt;/div&gt;" style="edgeLabel;html=1;align=center;verticalAlign=middle;resizable=0;points=[];" vertex="1" connectable="0" parent="5TrUls5Ifo_psQ1rPtZl-2">
          <mxGeometry x="0.9893" y="-3" relative="1" as="geometry">
            <mxPoint x="3" as="offset" />
          </mxGeometry>
        </mxCell>
        <mxCell id="5TrUls5Ifo_psQ1rPtZl-4" style="edgeStyle=orthogonalEdgeStyle;rounded=0;orthogonalLoop=1;jettySize=auto;html=1;" edge="1" parent="1" source="5TrUls5Ifo_psQ1rPtZl-1">
          <mxGeometry relative="1" as="geometry">
            <mxPoint x="140" y="-1060" as="targetPoint" />
          </mxGeometry>
        </mxCell>
        <mxCell id="5TrUls5Ifo_psQ1rPtZl-5" value="FurryVirus&lt;div&gt;V2-V9&lt;/div&gt;" style="edgeLabel;html=1;align=center;verticalAlign=middle;resizable=0;points=[];" vertex="1" connectable="0" parent="5TrUls5Ifo_psQ1rPtZl-4">
          <mxGeometry x="0.9827" relative="1" as="geometry">
            <mxPoint as="offset" />
          </mxGeometry>
        </mxCell>
        <mxCell id="5TrUls5Ifo_psQ1rPtZl-6" value="Mutations" style="edgeLabel;html=1;align=center;verticalAlign=middle;resizable=0;points=[];" vertex="1" connectable="0" parent="5TrUls5Ifo_psQ1rPtZl-4">
          <mxGeometry x="-0.2735" y="1" relative="1" as="geometry">
            <mxPoint as="offset" />
          </mxGeometry>
        </mxCell>
        <mxCell id="5TrUls5Ifo_psQ1rPtZl-16" value="1st" style="edgeLabel;html=1;align=center;verticalAlign=middle;resizable=0;points=[];" vertex="1" connectable="0" parent="5TrUls5Ifo_psQ1rPtZl-4">
          <mxGeometry x="-0.8591" relative="1" as="geometry">
            <mxPoint as="offset" />
          </mxGeometry>
        </mxCell>
        <mxCell id="5TrUls5Ifo_psQ1rPtZl-7" style="edgeStyle=orthogonalEdgeStyle;rounded=0;orthogonalLoop=1;jettySize=auto;html=1;" edge="1" parent="1" source="5TrUls5Ifo_psQ1rPtZl-1">
          <mxGeometry relative="1" as="geometry">
            <mxPoint x="414" y="-1060" as="targetPoint" />
          </mxGeometry>
        </mxCell>
        <mxCell id="5TrUls5Ifo_psQ1rPtZl-8" value="FurryVirus&lt;div&gt;V10&lt;/div&gt;" style="edgeLabel;html=1;align=center;verticalAlign=middle;resizable=0;points=[];" vertex="1" connectable="0" parent="5TrUls5Ifo_psQ1rPtZl-7">
          <mxGeometry x="0.9433" relative="1" as="geometry">
            <mxPoint as="offset" />
          </mxGeometry>
        </mxCell>
        <mxCell id="5TrUls5Ifo_psQ1rPtZl-9" value="Lab Created" style="edgeLabel;html=1;align=center;verticalAlign=middle;resizable=0;points=[];" vertex="1" connectable="0" parent="5TrUls5Ifo_psQ1rPtZl-7">
          <mxGeometry x="-0.2766" y="2" relative="1" as="geometry">
            <mxPoint as="offset" />
          </mxGeometry>
        </mxCell>
        <mxCell id="5TrUls5Ifo_psQ1rPtZl-1" value="FurryVirus V1" style="text;html=1;align=center;verticalAlign=middle;whiteSpace=wrap;rounded=0;" vertex="1" parent="1">
          <mxGeometry x="400" y="-1160" width="40" height="40" as="geometry" />
        </mxCell>
        <mxCell id="5TrUls5Ifo_psQ1rPtZl-11" value="" style="endArrow=none;html=1;rounded=0;" edge="1" parent="1">
          <mxGeometry width="50" height="50" relative="1" as="geometry">
            <mxPoint x="60" y="-1080" as="sourcePoint" />
            <mxPoint x="120" y="-1060" as="targetPoint" />
            <Array as="points">
              <mxPoint x="80" y="-1040" />
            </Array>
          </mxGeometry>
        </mxCell>
        <mxCell id="5TrUls5Ifo_psQ1rPtZl-12" value="" style="endArrow=none;html=1;rounded=0;" edge="1" parent="1">
          <mxGeometry width="50" height="50" relative="1" as="geometry">
            <mxPoint x="160" y="-1060" as="sourcePoint" />
            <mxPoint x="400" y="-1060" as="targetPoint" />
          </mxGeometry>
        </mxCell>
        <mxCell id="5TrUls5Ifo_psQ1rPtZl-13" value="Taking out the best functions" style="edgeLabel;html=1;align=center;verticalAlign=middle;resizable=0;points=[];" vertex="1" connectable="0" parent="5TrUls5Ifo_psQ1rPtZl-12">
          <mxGeometry x="-0.0767" y="1" relative="1" as="geometry">
            <mxPoint as="offset" />
          </mxGeometry>
        </mxCell>
        <mxCell id="5TrUls5Ifo_psQ1rPtZl-17" value="10th" style="edgeLabel;html=1;align=center;verticalAlign=middle;resizable=0;points=[];" vertex="1" connectable="0" parent="5TrUls5Ifo_psQ1rPtZl-12">
          <mxGeometry x="0.669" y="1" relative="1" as="geometry">
            <mxPoint as="offset" />
          </mxGeometry>
        </mxCell>
        <mxCell id="5TrUls5Ifo_psQ1rPtZl-14" value="" style="endArrow=none;html=1;rounded=0;" edge="1" parent="1">
          <mxGeometry width="50" height="50" relative="1" as="geometry">
            <mxPoint x="40" y="-1020" as="sourcePoint" />
            <mxPoint x="40" y="-1100" as="targetPoint" />
            <Array as="points">
              <mxPoint x="20" y="-1100" />
            </Array>
          </mxGeometry>
        </mxCell>
        <mxCell id="5TrUls5Ifo_psQ1rPtZl-15" value="Text" style="text;html=1;align=center;verticalAlign=middle;whiteSpace=wrap;rounded=0;" vertex="1" parent="1">
          <mxGeometry x="40" y="-1040" width="40" height="40" as="geometry" />
        </mxCell>
      </root>
    </mxGraphModel>
  </diagram>
</mxfile>
